# MagicaVoxel @ Ephtracy

# group
o Default

# material
mtllib casa01.mtl
usemtl palette

# normals
vn -1 0 0
vn 1 0 0
vn 0 0 1
vn 0 0 -1
vn 0 -1 0
vn 0 1 0

# texcoords
vt 0.00195313 0.5
vt 0.00976563 0.5
vt 0.0253906 0.5
vt 0.0488281 0.5
vt 0.0566406 0.5

# verts
v -1.2 -0.5 0.6
v -1.2 -0.5 -0.7
v -1.2 -0.4 0.6
v -1.2 -0.4 -0.7
v -1.2 0.3 0.7
v -1.2 0.3 -0.8
v -1.2 0.5 0.7
v -1.2 0.5 -0.8
v -1.1 -1.2 0.7
v -1.1 -1.2 -0.8
v -1.1 -1.1 0.7
v -1.1 -1.1 0.4
v -1.1 -1.1 -0.5
v -1.1 -1.1 -0.8
v -1.1 -0.5 0.4
v -1.1 -0.5 -0.5
v -1.1 -0.4 0.4
v -1.1 -0.4 -0.5
v -1.1 0.3 0.4
v -1.1 0.3 -0.5
v -1.1 0.5 0.6
v -1.1 0.5 -0.7
v -1.1 0.6 0.6
v -1.1 0.6 -0.7
v 1.19209e-007 -1.1 0.4
v 1.19209e-007 -1.1 0.2
v 1.19209e-007 -1.1 -0.3
v 1.19209e-007 -1.1 -0.5
v 1.19209e-007 -1 0.2
v 1.19209e-007 -1 -0.3
v 1.19209e-007 -0.9 0.2
v 1.19209e-007 -0.9 -0.3
v 1.19209e-007 -0.8 0.2
v 1.19209e-007 -0.8 -0.3
v 1.19209e-007 -0.7 0.4
v 1.19209e-007 -0.7 0.2
v 1.19209e-007 -0.7 -0.3
v 1.19209e-007 -0.7 -0.5
v -0.6 -1.1 0.4
v -0.6 -1.1 0.2
v -0.6 -1.1 -0.3
v -0.6 -1.1 -0.5
v -0.6 -1 0.2
v -0.6 -1 -0.3
v -0.6 -0.9 0.2
v -0.6 -0.9 -0.3
v -0.6 -0.8 0.2
v -0.6 -0.8 -0.3
v -0.6 -0.7 0.4
v -0.6 -0.7 0.2
v -0.6 -0.7 -0.3
v -0.6 -0.7 -0.5
v 0.5 -1.2 0.7
v 0.5 -1.2 -0.8
v 0.5 -1.1 0.7
v 0.5 -1.1 0.4
v 0.5 -1.1 -0.5
v 0.5 -1.1 -0.8
v 0.5 -0.5 0.4
v 0.5 -0.5 -0.5
v 0.5 -0.4 0.4
v 0.5 -0.4 -0.5
v 0.5 0.3 0.4
v 0.5 0.3 -0.5
v 0.5 0.5 0.6
v 0.5 0.5 -0.7
v 0.5 0.6 0.6
v 0.5 0.6 -0.7
v 0.6 -0.5 0.6
v 0.6 -0.5 -0.7
v 0.6 -0.4 0.6
v 0.6 -0.4 -0.7
v 0.6 0.3 0.7
v 0.6 0.3 -0.8
v 0.6 0.5 0.7
v 0.6 0.5 -0.8
v -1.2 0.3 0.7
v -1.2 0.5 0.7
v -1.1 -1.2 0.7
v -1.1 -1.1 0.7
v 0.5 -1.2 0.7
v 0.5 -1.1 0.7
v 0.6 0.3 0.7
v 0.6 0.5 0.7
v -1.2 -0.5 0.6
v -1.2 -0.4 0.6
v -1.1 0.5 0.6
v -1.1 0.6 0.6
v 0.5 0.5 0.6
v 0.5 0.6 0.6
v 0.6 -0.5 0.6
v 0.6 -0.4 0.6
v -1.1 -1.1 0.4
v -1.1 -0.5 0.4
v -1.1 -0.4 0.4
v -1.1 0.3 0.4
v -0.6 -1.1 0.4
v -0.6 -0.7 0.4
v 1.19209e-007 -1.1 0.4
v 1.19209e-007 -0.7 0.4
v 0.5 -1.1 0.4
v 0.5 -0.5 0.4
v 0.5 -0.4 0.4
v 0.5 0.3 0.4
v -0.6 -1.1 0.2
v -0.6 -1 0.2
v -0.6 -0.9 0.2
v -0.6 -0.8 0.2
v -0.6 -0.7 0.2
v 1.19209e-007 -1.1 0.2
v 1.19209e-007 -1 0.2
v 1.19209e-007 -0.9 0.2
v 1.19209e-007 -0.8 0.2
v 1.19209e-007 -0.7 0.2
v -0.6 -1.1 -0.3
v -0.6 -1 -0.3
v -0.6 -0.9 -0.3
v -0.6 -0.8 -0.3
v -0.6 -0.7 -0.3
v 1.19209e-007 -1.1 -0.3
v 1.19209e-007 -1 -0.3
v 1.19209e-007 -0.9 -0.3
v 1.19209e-007 -0.8 -0.3
v 1.19209e-007 -0.7 -0.3
v -1.1 -1.1 -0.5
v -1.1 -0.5 -0.5
v -1.1 -0.4 -0.5
v -1.1 0.3 -0.5
v -0.6 -1.1 -0.5
v -0.6 -0.7 -0.5
v 1.19209e-007 -1.1 -0.5
v 1.19209e-007 -0.7 -0.5
v 0.5 -1.1 -0.5
v 0.5 -0.5 -0.5
v 0.5 -0.4 -0.5
v 0.5 0.3 -0.5
v -1.2 -0.5 -0.7
v -1.2 -0.4 -0.7
v -1.1 0.5 -0.7
v -1.1 0.6 -0.7
v 0.5 0.5 -0.7
v 0.5 0.6 -0.7
v 0.6 -0.5 -0.7
v 0.6 -0.4 -0.7
v -1.2 0.3 -0.8
v -1.2 0.5 -0.8
v -1.1 -1.2 -0.8
v -1.1 -1.1 -0.8
v 0.5 -1.2 -0.8
v 0.5 -1.1 -0.8
v 0.6 0.3 -0.8
v 0.6 0.5 -0.8
v -1.1 -1.2 0.7
v 0.5 -1.2 0.7
v -1.1 -1.2 -0.8
v 0.5 -1.2 -0.8
v -0.6 -0.7 0.4
v 1.19209e-007 -0.7 0.4
v -0.6 -0.7 0.2
v 1.19209e-007 -0.7 0.2
v -0.6 -0.7 -0.3
v 1.19209e-007 -0.7 -0.3
v -0.6 -0.7 -0.5
v 1.19209e-007 -0.7 -0.5
v -1.2 -0.5 0.6
v 0.6 -0.5 0.6
v -1.1 -0.5 0.4
v 0.5 -0.5 0.4
v -1.1 -0.5 -0.5
v 0.5 -0.5 -0.5
v -1.2 -0.5 -0.7
v 0.6 -0.5 -0.7
v -1.2 0.3 0.7
v 0.6 0.3 0.7
v -1.1 0.3 0.4
v 0.5 0.3 0.4
v -1.1 0.3 -0.5
v 0.5 0.3 -0.5
v -1.2 0.3 -0.8
v 0.6 0.3 -0.8
v -1.1 -1.1 0.7
v 0.5 -1.1 0.7
v -1.1 -1.1 0.4
v -0.6 -1.1 0.4
v 1.19209e-007 -1.1 0.4
v 0.5 -1.1 0.4
v -0.6 -1.1 0.2
v 1.19209e-007 -1.1 0.2
v -0.6 -1.1 -0.3
v 1.19209e-007 -1.1 -0.3
v -1.1 -1.1 -0.5
v -0.6 -1.1 -0.5
v 1.19209e-007 -1.1 -0.5
v 0.5 -1.1 -0.5
v -1.1 -1.1 -0.8
v 0.5 -1.1 -0.8
v -1.2 -0.4 0.6
v 0.6 -0.4 0.6
v -1.1 -0.4 0.4
v 0.5 -0.4 0.4
v -1.1 -0.4 -0.5
v 0.5 -0.4 -0.5
v -1.2 -0.4 -0.7
v 0.6 -0.4 -0.7
v -1.2 0.5 0.7
v 0.6 0.5 0.7
v -1.1 0.5 0.6
v 0.5 0.5 0.6
v -1.1 0.5 -0.7
v 0.5 0.5 -0.7
v -1.2 0.5 -0.8
v 0.6 0.5 -0.8
v -1.1 0.6 0.6
v 0.5 0.6 0.6
v -1.1 0.6 -0.7
v 0.5 0.6 -0.7

# faces
f 3/2/1 2/2/1 1/2/1
f 4/2/1 2/2/1 3/2/1
f 7/2/1 6/2/1 5/2/1
f 8/2/1 6/2/1 7/2/1
f 11/3/1 10/3/1 9/3/1
f 12/3/1 10/3/1 11/3/1
f 13/3/1 10/3/1 12/3/1
f 14/3/1 10/3/1 13/3/1
f 15/1/1 13/1/1 12/1/1
f 16/1/1 13/1/1 15/1/1
f 19/1/1 18/1/1 17/1/1
f 20/1/1 18/1/1 19/1/1
f 23/2/1 22/2/1 21/2/1
f 24/2/1 22/2/1 23/2/1
f 29/1/1 26/1/1 25/1/1
f 30/1/1 28/1/1 27/1/1
f 31/1/1 29/1/1 25/1/1
f 32/1/1 28/1/1 30/1/1
f 33/1/1 31/1/1 25/1/1
f 34/1/1 28/1/1 32/1/1
f 35/1/1 33/1/1 25/1/1
f 36/1/1 33/1/1 35/1/1
f 37/1/1 28/1/1 34/1/1
f 38/1/1 28/1/1 37/1/1
f 39/1/2 40/1/2 43/1/2
f 41/1/2 42/1/2 44/1/2
f 39/1/2 43/1/2 45/1/2
f 44/1/2 42/1/2 46/1/2
f 39/1/2 45/1/2 47/1/2
f 46/1/2 42/1/2 48/1/2
f 39/1/2 47/1/2 49/1/2
f 49/1/2 47/1/2 50/1/2
f 48/1/2 42/1/2 51/1/2
f 51/1/2 42/1/2 52/1/2
f 53/3/2 54/3/2 55/3/2
f 55/3/2 54/3/2 56/3/2
f 56/3/2 54/3/2 57/3/2
f 57/3/2 54/3/2 58/3/2
f 56/1/2 57/1/2 59/1/2
f 59/1/2 57/1/2 60/1/2
f 61/1/2 62/1/2 63/1/2
f 63/1/2 62/1/2 64/1/2
f 65/2/2 66/2/2 67/2/2
f 67/2/2 66/2/2 68/2/2
f 69/2/2 70/2/2 71/2/2
f 71/2/2 70/2/2 72/2/2
f 73/2/2 74/2/2 75/2/2
f 75/2/2 74/2/2 76/2/2
f 81/3/3 80/3/3 79/3/3
f 82/3/3 80/3/3 81/3/3
f 83/2/3 78/2/3 77/2/3
f 84/2/3 78/2/3 83/2/3
f 89/2/3 88/2/3 87/2/3
f 90/2/3 88/2/3 89/2/3
f 91/2/3 86/2/3 85/2/3
f 92/2/3 86/2/3 91/2/3
f 97/1/3 94/1/3 93/1/3
f 98/1/3 94/1/3 97/1/3
f 100/1/3 94/1/3 98/1/3
f 101/1/3 100/1/3 99/1/3
f 102/1/3 94/1/3 100/1/3
f 102/1/3 100/1/3 101/1/3
f 103/1/3 96/1/3 95/1/3
f 104/1/3 96/1/3 103/1/3
f 110/4/3 106/4/3 105/4/3
f 111/5/3 107/5/3 106/5/3
f 111/4/3 106/4/3 110/4/3
f 112/4/3 108/4/3 107/4/3
f 112/5/3 107/5/3 111/5/3
f 113/5/3 109/5/3 108/5/3
f 113/4/3 108/4/3 112/4/3
f 114/5/3 109/5/3 113/5/3
f 115/4/4 116/4/4 120/4/4
f 116/5/4 117/5/4 121/5/4
f 120/4/4 116/4/4 121/4/4
f 117/4/4 118/4/4 122/4/4
f 121/5/4 117/5/4 122/5/4
f 118/5/4 119/5/4 123/5/4
f 122/4/4 118/4/4 123/4/4
f 123/5/4 119/5/4 124/5/4
f 125/1/4 126/1/4 129/1/4
f 129/1/4 126/1/4 130/1/4
f 130/1/4 126/1/4 132/1/4
f 131/1/4 132/1/4 133/1/4
f 132/1/4 126/1/4 134/1/4
f 133/1/4 132/1/4 134/1/4
f 127/1/4 128/1/4 135/1/4
f 135/1/4 128/1/4 136/1/4
f 139/2/4 140/2/4 141/2/4
f 141/2/4 140/2/4 142/2/4
f 137/2/4 138/2/4 143/2/4
f 143/2/4 138/2/4 144/2/4
f 147/3/4 148/3/4 149/3/4
f 149/3/4 148/3/4 150/3/4
f 145/2/4 146/2/4 151/2/4
f 151/2/4 146/2/4 152/2/4
f 155/3/5 154/3/5 153/3/5
f 156/3/5 154/3/5 155/3/5
f 159/1/5 158/1/5 157/1/5
f 160/1/5 158/1/5 159/1/5
f 163/1/5 162/1/5 161/1/5
f 164/1/5 162/1/5 163/1/5
f 167/2/5 166/2/5 165/2/5
f 168/2/5 166/2/5 167/2/5
f 169/2/5 167/2/5 165/2/5
f 170/2/5 166/2/5 168/2/5
f 171/2/5 169/2/5 165/2/5
f 171/2/5 170/2/5 169/2/5
f 172/2/5 166/2/5 170/2/5
f 172/2/5 170/2/5 171/2/5
f 175/2/5 174/2/5 173/2/5
f 176/2/5 174/2/5 175/2/5
f 177/2/5 175/2/5 173/2/5
f 178/2/5 174/2/5 176/2/5
f 179/2/5 177/2/5 173/2/5
f 179/2/5 178/2/5 177/2/5
f 180/2/5 174/2/5 178/2/5
f 180/2/5 178/2/5 179/2/5
f 181/3/6 182/3/6 183/3/6
f 183/3/6 182/3/6 184/3/6
f 184/3/6 182/3/6 185/3/6
f 185/3/6 182/3/6 186/3/6
f 184/3/6 185/3/6 187/3/6
f 187/3/6 185/3/6 188/3/6
f 189/3/6 190/3/6 192/3/6
f 192/3/6 190/3/6 193/3/6
f 192/3/6 193/3/6 195/3/6
f 193/3/6 194/3/6 195/3/6
f 191/3/6 192/3/6 195/3/6
f 195/3/6 194/3/6 196/3/6
f 197/2/6 198/2/6 199/2/6
f 199/2/6 198/2/6 200/2/6
f 197/2/6 199/2/6 201/2/6
f 200/2/6 198/2/6 202/2/6
f 197/2/6 201/2/6 203/2/6
f 201/2/6 202/2/6 203/2/6
f 202/2/6 198/2/6 204/2/6
f 203/2/6 202/2/6 204/2/6
f 205/2/6 206/2/6 207/2/6
f 207/2/6 206/2/6 208/2/6
f 205/2/6 207/2/6 209/2/6
f 208/2/6 206/2/6 210/2/6
f 205/2/6 209/2/6 211/2/6
f 209/2/6 210/2/6 211/2/6
f 210/2/6 206/2/6 212/2/6
f 211/2/6 210/2/6 212/2/6
f 213/2/6 214/2/6 215/2/6
f 215/2/6 214/2/6 216/2/6
